<?xml version="1.0" encoding="UTF-8"?>
<svg width="600px" height="600px" viewBox="0 0 600 600" version="1.1" xmlns="http://www.w3.org/2000/svg" xmlns:xlink="http://www.w3.org/1999/xlink">
    <!-- Generator: Sketch 41.2 (35397) - http://www.bohemiancoding.com/sketch -->
    <title>c</title>
    <desc>Created with Sketch.</desc>
    <defs></defs>
    <g id="色彩参照" stroke="none" stroke-width="1" fill="none" fill-rule="evenodd">
        <g id="c" transform="translate(-53.000000, -53.000000)">
            <g id="Group" transform="translate(353.000000, 353.000000) rotate(-11.250000) translate(-353.000000, -353.000000) translate(53.000000, 53.000000)">
                <path d="M305.099809,0.0433498809 C341.060944,0.654754596 376.619101,7.72771179 410.076832,20.924578 L356.48663,150.30277 C340.035693,144.095187 322.674031,140.641738 305.099809,140.081296 L305.099809,0.0433498809 Z" id="Shape" fill="#F44336"></path>
                <path d="M419.500049,24.8278026 C452.489831,39.1543974 482.634581,59.2964754 508.495272,84.2925093 L409.473491,183.31429 C396.650346,171.283731 381.93184,161.449139 365.909848,154.205995 L419.500049,24.8278026 Z" id="Shape" fill="#FF5722"></path>
                <path d="M515.707491,91.504728 C540.703525,117.365419 560.845603,147.510169 575.172197,180.499951 L445.794005,234.090152 C438.550861,218.06816 428.716269,203.349654 416.68571,190.526509 L515.707491,91.504728 Z" id="Shape" fill="#FF9800"></path>
                <path d="M579.075422,189.923168 C592.272288,223.380899 599.345245,258.939056 599.95665,294.900191 L459.918704,294.900191 C459.358262,277.325969 455.904813,259.964307 449.69723,243.51337 L579.075422,189.923168 Z" id="Shape" fill="#FFC107"></path>
                <path d="M599.95665,305.099809 C599.345245,341.060944 592.272288,376.619101 579.075422,410.076832 L449.69723,356.48663 C455.904813,340.035693 459.358262,322.674031 459.918704,305.099809 L599.95665,305.099809 Z" id="Shape" fill="#FFEB3B"></path>
                <path d="M575.172197,419.500049 C560.845603,452.489831 540.703525,482.634581 515.707491,508.495272 L416.68571,409.473491 C428.716269,396.650346 438.550861,381.93184 445.794005,365.909848 L575.172197,419.500049 Z" id="Shape" fill="#CDDC39"></path>
                <path d="M508.495272,515.707491 C482.634581,540.703525 452.489831,560.845603 419.500049,575.172197 L365.909848,445.794005 C381.93184,438.550861 396.650346,428.716269 409.473491,416.68571 L508.495272,515.707491 Z" id="Shape" fill="#8BC34A"></path>
                <path d="M410.076832,579.075422 C376.619101,592.272288 341.060944,599.345245 305.099809,599.95665 L305.099809,459.918704 C322.674031,459.358262 340.035693,455.904813 356.48663,449.69723 L410.076832,579.075422 Z" id="Shape" fill="#4CAF50"></path>
                <path d="M294.900191,599.95665 C258.939056,599.345245 223.380899,592.272288 189.923168,579.075422 L243.51337,449.69723 C259.964307,455.904813 277.325969,459.358262 294.900191,459.918704 L294.900191,599.95665 Z" id="Shape" fill="#009688"></path>
                <path d="M180.499951,575.172197 C147.510169,560.845603 117.365419,540.703525 91.504728,515.707491 L190.526509,416.68571 C203.349654,428.716269 218.06816,438.550861 234.090152,445.794005 L180.499951,575.172197 Z" id="Shape" fill="#00BCD4"></path>
                <path d="M84.2925093,508.495272 C59.2964754,482.634581 39.1543974,452.489831 24.8278026,419.500049 L154.205995,365.909848 C161.449139,381.93184 171.283731,396.650346 183.31429,409.473491 L84.2925093,508.495272 Z" id="Shape" fill="#03A9F4"></path>
                <path d="M20.924578,410.076832 C7.72771179,376.619101 0.654754596,341.060944 0.0433498809,305.099809 L140.081296,305.099809 C140.641738,322.674031 144.095187,340.035693 150.30277,356.48663 L20.924578,410.076832 Z" id="Shape" fill="#2196F3"></path>
                <path d="M0.0433498809,294.900191 C0.654754596,258.939056 7.72771179,223.380899 20.924578,189.923168 L150.30277,243.51337 C144.095187,259.964307 140.641738,277.325969 140.081296,294.900191 L0.0433498809,294.900191 Z" id="Shape" fill="#3F51B5"></path>
                <path d="M24.8278026,180.499951 C39.1543974,147.510169 59.2964754,117.365419 84.2925093,91.504728 L183.31429,190.526509 C171.283731,203.349654 161.449139,218.06816 154.205995,234.090152 L24.8278026,180.499951 Z" id="Shape" fill="#673AB7"></path>
                <path d="M91.504728,84.2925093 C117.365419,59.2964754 147.510169,39.1543974 180.499951,24.8278026 L234.090152,154.205995 C218.06816,161.449139 203.349654,171.283731 190.526509,183.31429 L91.504728,84.2925093 Z" id="Shape" fill="#9C27B0"></path>
                <path d="M189.532988,22.8861486 C222.990719,9.68928235 258.548876,2.61632516 294.510011,2.00492044 L294.510011,142.042866 C276.935788,142.603308 259.574126,146.056758 243.12319,152.264341 L189.532988,22.8861486 Z" id="Shape" fill="#E91E63"></path>
            </g>
        </g>
    </g>
</svg>